<svg xmlns="http://www.w3.org/2000/svg" viewBox="0 0 62 62" width="64" height="64">
	<style>
		tspan { white-space:pre }
		.shp0 { fill: #0c0c0c } 
		.shp1 { fill: #677079 } 
		.shp2 { fill: #f9dca4 } 
		.shp3 { opacity: 0.11;fill: #000000 } 
		.shp4 { fill: #ffe8be } 
		.shp5 { fill: #8a5c42 } 
		.shp6 { fill: #434955 } 
		.shp7 { fill: #e6e6e6 } 
	</style>
	<g id="Layer_2">
		<g id="_ÎÓÈ_1">
			<path id="Layer" class="shp0" d="M30.9 61.8C13.81 61.8 0 47.99 0 30.9C0 13.81 13.81 0 30.9 0C47.99 0 61.8 13.81 61.8 30.9C61.8 47.99 47.99 61.8 30.9 61.8Z" />
			<path id="Layer" fill-rule="evenodd" class="shp1" d="M52.59 52.91C49.7 55.75 46.28 58 42.52 59.53C38.77 61.05 34.75 61.83 30.69 61.8C26.64 61.77 22.63 60.95 18.89 59.37C15.16 57.8 11.77 55.5 8.92 52.62C9.1 52.11 9.33 51.63 9.6 51.16C9.86 50.7 10.17 50.26 10.51 49.85C10.86 49.43 11.23 49.05 11.64 48.71C12.05 48.36 12.49 48.05 12.96 47.79C13.27 47.55 13.59 47.33 13.92 47.11C14.25 46.9 14.59 46.7 14.93 46.5C15.27 46.31 15.61 46.13 15.96 45.95C16.31 45.78 16.67 45.62 17.03 45.46C14.83 37.91 20.81 34.2 23.09 33.13C23.09 36.62 26.36 34.3 30.41 34.34C33.75 34.38 40.34 37.74 40.34 33.31C44.02 34.4 48.02 41.39 45.26 45.69C45.54 45.82 45.82 45.97 46.1 46.12C46.37 46.28 46.64 46.44 46.91 46.6C47.17 46.77 47.43 46.94 47.69 47.13C47.95 47.31 48.2 47.49 48.44 47.69C48.92 47.99 49.37 48.34 49.79 48.72C50.21 49.09 50.6 49.51 50.95 49.95C51.31 50.39 51.62 50.87 51.89 51.36C52.17 51.86 52.4 52.37 52.59 52.91L52.59 52.91Z" />
			<path id="Layer" fill-rule="evenodd" class="shp2" d="M24.03 38.68L38.95 38.77L38.95 42.21L38.95 42.26C38.94 42.3 38.94 42.34 38.93 42.38C38.93 42.42 38.93 42.45 38.92 42.49C38.91 42.53 38.91 42.57 38.9 42.61C38.89 42.65 38.88 42.68 38.88 42.72L38.83 43.06L38.8 43.13C37.83 48.21 33.6 50.17 30.99 51.53C28.24 50.04 24.35 47.34 24.05 42.56L24.03 42.5L24.03 42.3C24.03 42.29 24.03 42.27 24.03 42.25C24.03 42.24 24.03 42.22 24.03 42.2C24.03 42.18 24.03 42.17 24.03 42.15C24.03 42.13 24.03 42.11 24.03 42.1C24.03 42.13 24.03 42.17 24.03 42.2L24.03 38.68Z" />
			<path id="Layer" fill-rule="evenodd" class="shp3" d="M38.95 38.62L38.95 42.62C38.95 42.71 38.95 42.81 38.95 42.9C38.94 42.99 38.93 43.09 38.93 43.18C38.92 43.27 38.91 43.36 38.9 43.45C38.89 43.55 38.87 43.64 38.86 43.73C38.84 43.84 38.82 43.96 38.79 44.07C38.77 44.18 38.74 44.29 38.71 44.4C38.67 44.51 38.64 44.62 38.6 44.73C38.56 44.84 38.52 44.95 38.48 45.05C33.29 48.97 25.03 45.75 23.72 39.07L38.95 38.62Z" />
			<path id="Layer" fill-rule="evenodd" class="shp2" d="M18.1 25.23C13.16 26.5 17.36 32.52 20.47 32.5C20.16 31.94 19.87 31.37 19.62 30.78C19.36 30.19 19.13 29.59 18.93 28.98C18.74 28.37 18.57 27.75 18.43 27.13C18.29 26.5 18.18 25.87 18.1 25.24L18.1 25.23Z" />
			<path id="Layer" fill-rule="evenodd" class="shp2" d="M43.84 25.23C48.78 26.5 44.58 32.52 41.47 32.5C41.78 31.94 42.07 31.36 42.32 30.78C42.58 30.19 42.81 29.59 43.01 28.98C43.21 28.37 43.37 27.75 43.51 27.13C43.65 26.5 43.76 25.87 43.84 25.23L43.84 25.23Z" />
			<path id="Layer" fill-rule="evenodd" class="shp4" d="M30.73 11.36C51.26 11.36 43.26 43.81 30.73 43.81C18.9 43.81 10.21 11.36 30.73 11.36L30.73 11.36Z" />
			<path id="Layer" fill-rule="evenodd" class="shp5" d="M21.05 22.11C21.22 22.3 21.35 22.53 21.43 22.77C21.5 23.02 21.52 23.29 21.48 23.54C21.44 23.8 21.34 24.04 21.2 24.26C21.05 24.47 20.86 24.65 20.63 24.78C19.18 25.97 19.13 30.13 19.13 30.13C18.57 29.58 18.58 26.6 17.37 24.88C16.16 23.16 15.34 11.12 22.13 6.74C21.92 6.98 21.74 7.25 21.59 7.53C21.44 7.82 21.33 8.12 21.25 8.43C21.17 8.74 21.12 9.06 21.11 9.38C21.1 9.7 21.13 10.02 21.19 10.34C21.26 10.65 25.91 3.57 33.73 3.77C33.42 3.94 33.13 4.14 32.87 4.37C32.6 4.6 32.36 4.85 32.14 5.13C31.93 5.41 31.74 5.72 31.59 6.03C31.44 6.35 31.33 6.69 31.25 7.03C31.17 7.37 38.09 4.21 43.79 7.56C43.42 7.67 43.05 7.78 42.69 7.92C42.33 8.05 41.98 8.2 41.63 8.36C41.28 8.52 40.94 8.7 40.61 8.89C40.28 9.09 39.96 9.29 39.64 9.51C42.41 9.59 45.08 10.1 47.1 11.9C46.67 12.03 46.27 12.26 45.92 12.56C45.57 12.85 45.29 13.22 45.09 13.63C44.89 14.03 44.77 14.48 44.74 14.93C44.71 15.39 44.77 15.84 44.92 16.28C45.78 19.78 45.86 23.04 45.03 24.79C44.2 26.54 43.81 25.41 43.29 29.08C43.28 29.21 43.25 29.33 43.21 29.45C43.17 29.56 43.12 29.68 43.05 29.78C42.98 29.89 42.91 29.98 42.82 30.07C42.73 30.16 42.63 30.23 42.52 30.3C42.5 30.56 42.9 26.54 41.87 25.47C40.83 24.4 41.48 23.09 41.9 22.31C44.79 16.88 36.13 14.42 31.4 14.43C27.3 14.43 17.4 16.3 21.05 22.11L21.05 22.11Z" />
			<path id="Layer" fill-rule="evenodd" class="shp6" d="M19.79 49.16C19.82 49.2 30.21 62.64 42.42 48.96C40.95 53.01 34.58 56.23 30.94 56.22C23.99 56.2 20.15 50.62 19.79 49.16L19.79 49.16Z" />
			<path id="Layer" fill-rule="evenodd" class="shp7" d="M36.34 61.32C35.93 61.4 35.51 61.46 35.1 61.52L35.1 52.58C35.11 52.5 35.13 52.43 35.16 52.37C35.2 52.3 35.25 52.24 35.3 52.19C35.36 52.15 35.43 52.11 35.5 52.09C35.57 52.06 35.64 52.06 35.72 52.06C35.79 52.06 35.87 52.06 35.94 52.09C36.01 52.11 36.07 52.15 36.13 52.19C36.19 52.24 36.24 52.3 36.27 52.37C36.31 52.43 36.33 52.5 36.34 52.58L36.34 61.32ZM26.52 61.49C26.1 61.43 25.69 61.36 25.28 61.29L25.28 52.58C25.29 52.5 25.31 52.43 25.34 52.37C25.38 52.3 25.43 52.24 25.48 52.19C25.54 52.15 25.61 52.11 25.68 52.09C25.75 52.06 25.82 52.06 25.9 52.06C25.97 52.06 26.05 52.06 26.12 52.09C26.19 52.11 26.25 52.15 26.31 52.19C26.37 52.24 26.42 52.3 26.45 52.37C26.49 52.43 26.51 52.5 26.52 52.58L26.52 61.49Z" />
		</g>
	</g>
</svg>